<?xml version="1.0" encoding="UTF-8" standalone="no"?>
<!DOCTYPE svg PUBLIC "-//W3C//DTD SVG 1.1//EN" "http://www.w3.org/Graphics/SVG/1.1/DTD/svg11.dtd">
<svg version="1.1" xmlns="http://www.w3.org/2000/svg" xmlns:xlink="http://www.w3.org/1999/xlink" preserveAspectRatio="xMidYMid meet" viewBox="0 0 400 400" width="400" height="400"><defs><path d="M354.2 25C365.69 25 375 34.32 375 45.81C375 54.37 375 59.26 375 67.83C375 79.32 365.69 88.64 354.2 88.64C288.36 88.64 111.65 88.64 45.81 88.64C34.32 88.64 25 79.32 25 67.83C25 59.26 25 54.37 25 45.81C25 34.32 34.32 25 45.81 25C111.65 25 288.36 25 354.2 25Z" id="atjKaKTbB"></path><path d="M354.2 118.93C365.69 118.93 375 128.25 375 139.74C375 148.31 375 153.19 375 161.76C375 173.25 365.69 182.57 354.2 182.57C288.36 182.57 111.65 182.57 45.81 182.57C34.32 182.57 25 173.25 25 161.76C25 153.19 25 148.31 25 139.74C25 128.25 34.32 118.93 45.81 118.93C111.65 118.93 288.36 118.93 354.2 118.93Z" id="a8t8SJZj1d"></path><path d="M354.2 215.92C365.69 215.92 375 225.23 375 236.73C375 245.29 375 250.18 375 258.75C375 270.24 365.69 279.55 354.2 279.55C288.36 279.55 111.65 279.55 45.81 279.55C34.32 279.55 25 270.24 25 258.75C25 250.18 25 245.29 25 236.73C25 225.23 34.32 215.92 45.81 215.92C111.65 215.92 288.36 215.92 354.2 215.92Z" id="a3yDVwUKuk"></path><path d="M354.2 311.36C365.69 311.36 375 320.68 375 332.17C375 340.74 375 345.63 375 354.19C375 365.68 365.69 375 354.2 375C288.36 375 111.65 375 45.81 375C34.32 375 25 365.68 25 354.19C25 345.63 25 340.74 25 332.17C25 320.68 34.32 311.36 45.81 311.36C111.65 311.36 288.36 311.36 354.2 311.36Z" id="exrydGh3T"></path></defs><g><g><g><use xlink:href="#atjKaKTbB" opacity="1" fill="#da3f0b" fill-opacity="1"></use></g><g><use xlink:href="#a8t8SJZj1d" opacity="1" fill="#406abf" fill-opacity="1"></use></g><g><use xlink:href="#a3yDVwUKuk" opacity="1" fill="#40bf40" fill-opacity="1"></use></g><g><use xlink:href="#exrydGh3T" opacity="1" fill="#cc33a6" fill-opacity="1"></use></g></g></g></svg>